<svg xmlns="http://www.w3.org/2000/svg" viewBox="0 0 283.46 180.44"><defs><style>.cls-1{fill:#ff7272;}.cls-2{fill:#ff7a00;}.cls-3{fill:#ff3012;}</style></defs><g id="Layer_2" data-name="Layer 2"><g id="Artwork"><path d="M26.47,110v14.78c0,3.71.3,4.07,4.85,4.43v1.14H15.88v-1.14c4.78-.36,5-.78,5-4.43V96.41c0-3.65-.3-4.07-5-4.43V90.85H31.32V92c-4.61.36-4.85.72-4.85,4.43v12.15H46V96.41c0-3.59-.3-4.07-5-4.43V90.85h15.5V92c-4.55.36-4.91.78-4.91,4.43v28.37c0,3.71.24,4.07,4.91,4.43v1.14H41v-1.14c4.67-.36,5-.9,5-4.43V110Zm58.35,6.58c0,9.1-4,14.48-13.23,14.48-9,0-13.16-5.38-13.16-14.48S62.55,102,71.65,102,84.82,107.43,84.82,116.58ZM71.59,129.93c5.21,0,7.54-5.27,7.54-13.35s-2.33-13.34-7.54-13.34c-5,0-7.42,5.32-7.42,13.4S66.56,129.93,71.59,129.93ZM91.4,107.78c0-2.39-.29-2.87-1.85-3.11l-1.8-.18v-.95l8-1.44.9,4.31c3.41-2.34,5.75-4.37,9.94-4.37a7.06,7.06,0,0,1,7.18,4.79c3.35-2.4,6.1-4.79,10.35-4.79,5.15,0,7.78,3.29,7.78,9v14.42c0,3.11.42,3.47,3.89,3.77v1.14H122.52v-1.14c3.89-.24,4.19-.6,4.19-3.77V111.2c0-4.61-2.09-6.65-5.74-6.65a7.89,7.89,0,0,0-5.75,2.76c-.65.83-1,1.19-1,3.83v14.3c0,3.17.48,3.47,4.19,3.77v1.14H104.93v-1.14c3.89-.24,4.19-.6,4.19-3.77V111.2c0-4.73-2-6.65-5.63-6.65-2.93,0-5.5,1.62-6.34,3.53a5.81,5.81,0,0,0-.6,3.06v14.3c0,3.11.3,3.47,4.19,3.77v1.14H87.51v-1.14c4-.24,3.89-.78,3.89-3.77Zm52.43,7.72c-.12,5.93,1.38,13.23,8.32,13.23,5.68,0,7.36-3.71,8.44-6.4l.89.42c-1.31,4.36-4.36,8.31-10.59,8.31-9.45,0-12.81-5.44-12.81-14.3,0-8.38,3.83-14.72,12.75-14.72,10.3,0,10.95,8,10.95,11.37,0,1-.3,2.09-2.33,2.09Zm10.29-1.31c2,0,2.22-1.26,2.22-2.93,0-2.28-.54-8-5.87-8-5.86,0-6.64,8.55-6.64,11Zm35.44,8.68a10.61,10.61,0,0,1-10.65,8.19c-8.44,0-12.75-4.9-12.75-14.3,0-7.48,3.23-14.72,13.41-14.72,6.22,0,9.45,2.93,9.45,5.51a2.79,2.79,0,0,1-2.87,2.93c-1.13,0-1.55-.36-1.79-1.32-.66-3.11-1.68-5.92-5.45-5.92s-7,4-7,12.56c0,5.51,1.67,12.87,8.2,12.87,4,0,7-1.56,8.68-6.16Zm25.52.83c0,3.53.65,4.61,1.67,4.85a5,5,0,0,0,2.33.12l.06.72a9,9,0,0,1-5.32,1.67c-2.28,0-3.17-1.25-3.71-3.83-1.8,1.2-5,3.83-8.5,3.83-5.45,0-7.9-3.83-7.9-8,0-2.69,1.2-4.9,5.27-6.16,4.42-1.38,9.75-2.81,11.19-4.25v-3c0-4.43-2-6.46-5-6.46s-5.09,2-5.63,6.46c-.12.84-.41,1.2-1.55,1.2s-3.23-.72-3.23-2.52c0-2.87,4.49-6.22,11-6.22,8.56,0,9.34,4.31,9.34,7.66ZM210.17,114c-1.26.84-4.37,1.85-6.65,2.75-3.05,1.08-4.24,2.75-4.24,5.45,0,3.29,2,6.4,5.5,6.4,2.1,0,5.39-1,5.39-5.45Zm21.24,11.73c0,2.75.18,3.11,4.84,3.47v1.14H222.43v-1.14c3.71-.24,3.83-.66,3.83-3.47V107.43c0-2-.54-2.52-1.92-2.76l-1.67-.18v-.95l8.08-1.44.66,4.73c3.65-3.29,5.26-4.79,7.24-4.79a2.76,2.76,0,0,1,3,2.81c0,1.8-1.26,3.29-2.69,3.29a2,2,0,0,1-1.32-.48c-1-1.19-1.56-1.67-3-1.67s-3.29,1.38-3.29,5.68Zm18.34-10.24c-.11,5.93,1.38,13.23,8.32,13.23,5.69,0,7.36-3.71,8.44-6.4l.9.42c-1.32,4.36-4.37,8.31-10.59,8.31-9.46,0-12.81-5.44-12.81-14.3,0-8.38,3.83-14.72,12.75-14.72,10.29,0,10.95,8,10.95,11.37,0,1-.3,2.09-2.34,2.09Zm10.3-1.31c2,0,2.21-1.26,2.21-2.93,0-2.28-.54-8-5.86-8-5.87,0-6.65,8.55-6.65,11ZM24.36,179.72v-1.2l2.21-.24c1.8-.18,2.1-1,1.5-2.63-1-3-2.93-8.56-4.13-11.91H11c-1.13,3.71-2.09,6.52-3,9.94s-.48,4.42,1.44,4.6l2.87.3v1.14H0v-1.14c3.65-.18,4.31-.84,6.22-5.92,3.71-10,7.72-22.45,11.14-32.68h3.89c3.29,9.16,9.45,26.69,12.5,35,1,2.87,1.62,3.17,5.45,3.53v1.2ZM17.3,144.41h-.18c-1.62,5-4,12.45-5.63,17.89h12C22,158,19.15,149.2,17.3,144.41Zm41.53,15.86c-1.2-4.79-3.29-7.66-7.24-7.66a4.61,4.61,0,0,0-4.79,4.91c0,3.47,2.69,4.6,6,5.74,5.69,2,8.8,3.47,8.8,8.44s-4.25,8.74-11,8.74a18.06,18.06,0,0,1-8-1.86l-.6-8.2h1.08c1.13,4.79,3.65,8.92,8.14,8.92,3,0,5.68-1.56,5.68-5.09,0-3.23-2.51-4.78-6-6-4.73-1.56-8.5-3.47-8.5-8.14,0-5.39,3.95-8.62,9.93-8.62A17.87,17.87,0,0,1,59.79,153v7.24Zm24,0c-1.2-4.79-3.3-7.66-7.25-7.66a4.61,4.61,0,0,0-4.78,4.91c0,3.47,2.69,4.6,6,5.74,5.69,2,8.8,3.47,8.8,8.44s-4.25,8.74-11,8.74a18.06,18.06,0,0,1-8-1.86l-.6-8.2h1.08c1.13,4.79,3.65,8.92,8.13,8.92,3,0,5.69-1.56,5.69-5.09,0-3.23-2.51-4.78-6-6-4.73-1.56-8.5-3.47-8.5-8.14,0-5.39,4-8.62,9.93-8.62A17.82,17.82,0,0,1,83.81,153v7.24ZM116.34,166c0,9.1-4,14.49-13.23,14.49-9,0-13.16-5.39-13.16-14.49s4.13-14.54,13.22-14.54S116.34,156.8,116.34,166ZM103.11,179.3c5.21,0,7.54-5.27,7.54-13.35s-2.33-13.34-7.54-13.34c-5,0-7.42,5.33-7.42,13.4S98.09,179.3,103.11,179.3Zm41.24-7.06a10.64,10.64,0,0,1-10.66,8.2c-8.44,0-12.74-4.91-12.74-14.31,0-7.48,3.23-14.72,13.4-14.72,6.23,0,9.46,2.93,9.46,5.51a2.8,2.8,0,0,1-2.88,2.93c-1.13,0-1.55-.36-1.79-1.32-.66-3.11-1.68-5.92-5.45-5.92s-7,3.95-7,12.57c0,5.5,1.68,12.86,8.2,12.86,4,0,7-1.55,8.68-6.16ZM151,156.92c0-2.22-.36-2.58-2.1-2.88l-1.49-.17v-1l8.56-1.44.18.12v23.52c0,3.11.29,3.17,3.89,3.47v1.14H147.13v-1.14c3.71-.36,3.83-.36,3.83-3.47Zm5.38-13.17a2.87,2.87,0,0,1-5.74,0,2.78,2.78,0,0,1,2.93-2.87A2.71,2.71,0,0,1,156.34,143.75Zm27.81,29.33c0,3.53.66,4.6,1.68,4.84a5,5,0,0,0,2.33.12l.06.72a9,9,0,0,1-5.32,1.68c-2.28,0-3.17-1.26-3.71-3.83-1.8,1.19-5,3.83-8.5,3.83-5.45,0-7.9-3.83-7.9-8,0-2.7,1.2-4.91,5.27-6.17,4.42-1.37,9.75-2.81,11.19-4.25V159c0-4.43-2-6.46-5-6.46s-5.09,2-5.63,6.46c-.12.84-.42,1.2-1.55,1.2s-3.23-.72-3.23-2.51c0-2.88,4.48-6.23,11-6.23,8.56,0,9.33,4.31,9.33,7.66Zm-4.9-9.7c-1.26.84-4.37,1.86-6.65,2.75-3,1.08-4.25,2.76-4.25,5.45,0,3.29,2,6.4,5.51,6.4,2.09,0,5.39-1,5.39-5.44Zm18.58-9.45v18.43c0,4.25,1.79,5.62,3.71,5.62a7.11,7.11,0,0,0,3.35-.6l.3.72a12.3,12.3,0,0,1-6.58,2.34c-2,0-5.93-.6-5.93-6.35V153.93H189v-1.8h3.89l3.77-7.06h1.14v7.06h6.7v1.8Zm14.31,3c0-2.22-.36-2.58-2.1-2.88l-1.5-.17v-1l8.56-1.44.18.12v23.52c0,3.11.3,3.17,3.89,3.47v1.14H208.31v-1.14c3.71-.36,3.83-.36,3.83-3.47Zm5.38-13.17a2.73,2.73,0,0,1-2.87,2.87,2.69,2.69,0,0,1-2.87-2.87,2.78,2.78,0,0,1,2.93-2.87A2.72,2.72,0,0,1,217.52,143.75ZM249.77,166c0,9.1-4,14.49-13.23,14.49-9,0-13.17-5.39-13.17-14.49s4.13-14.54,13.23-14.54S249.77,156.8,249.77,166ZM236.54,179.3c5.21,0,7.54-5.27,7.54-13.35s-2.33-13.34-7.54-13.34c-5,0-7.42,5.33-7.42,13.4S231.51,179.3,236.54,179.3Zm43-4.49c0,3.23.18,3.47,3.89,3.77v1.14h-13v-1.14c3.77-.24,4-.48,4-3.77V160.57c0-4.73-2.22-6.64-5.81-6.64-2.93,0-5.62,1.61-6.52,3.47a5.75,5.75,0,0,0-.6,3v14.36c0,3.29.3,3.47,3.95,3.77v1.14h-13v-1.14c3.65-.24,3.89-.54,3.89-3.77V157.16c0-2.52-.12-2.88-1.85-3.12l-1.8-.17v-1l8-1.44.78,4.37c3.53-2.21,6.11-4.43,10.17-4.43,5.21,0,8,3.29,8,9Z"/><path class="cls-1" d="M153.11,65.27a19.88,19.88,0,1,0,28.12-28.12L169.86,25.78,141.73,53.9Z"/><path class="cls-2" d="M102.23,37.15a19.89,19.89,0,0,0,28.13,28.12L141.73,53.9,113.61,25.77Z"/><path class="cls-3" d="M137.71,1.66a5.7,5.7,0,0,1,8,0l24.11,24.11L141.73,53.9,113.61,25.77Z"/></g></g></svg>